<?xml version="1.0" encoding="utf-8"?>
<!-- Generator: Adobe Illustrator 27.5.0, SVG Export Plug-In . SVG Version: 6.00 Build 0)  -->
<svg version="1.1" id="Слой_1" xmlns="http://www.w3.org/2000/svg" xmlns:xlink="http://www.w3.org/1999/xlink" x="0px" y="0px"
	 viewBox="0 0 3200 2000" style="enable-background:new 0 0 3200 2000;" xml:space="preserve">
<rect style="fill:#FFFFFF;" width="3200" height="2000"/>
<g>
	<g>
		<path style="fill:#F8FBFF;" d="M2885.292,1513.423H303.607c0,0-2.227-21.316-2.887-55.747c-0.372-20.054-0.239-44.572,1.205-71.91
			c0.124-2.228,0.249-4.493,0.382-6.768c0.755-12.532,1.768-25.628,3.135-39.115c0.124-1.194,0.249-2.399,0.382-3.604
			c1.491-14.108,3.346-28.762,5.659-43.827c1.883-12.235,4.053-24.757,6.596-37.47c0.172-0.89,0.353-1.788,0.535-2.687
			c1.31-6.472,2.715-12.98,4.215-19.558c0.583-2.571,1.186-5.151,1.797-7.742c1.204-5.047,2.466-10.123,3.785-15.198
			c3.212-12.455,6.796-24.997,10.773-37.576c0.401-1.271,0.813-2.571,1.214-3.871c1.807-5.602,3.699-11.222,5.659-16.853
			c3.001-8.555,6.185-17.119,9.578-25.665c2.112-5.362,4.33-10.706,6.614-16.059c21.651-50.633,50.652-100.205,89.375-144.577
			c88.696-101.658,228.407-176.111,447.638-173.932c44.066,0.43,85.025-0.717,123.251-3.25h0.058
			c11.624-0.765,22.989-1.664,34.115-2.686l0.115-0.01c253.231-23.285,380.115-110.117,495.47-194.808
			c4.139-3.039,8.269-6.079,12.388-9.109c40.347-29.718,79.778-58.872,123.29-84.614c11.136-6.596,22.549-12.962,34.307-19.061
			c72.13-37.384,157.48-64.54,275.436-70.391c11.49-0.574,22.712-0.488,33.647,0.22c4.177,0.268,8.307,0.631,12.397,1.08
			c45.863,5.038,86.421,21.354,120.412,47.173c88.438,67.179,132.38,198.612,109.381,362.689
			c-15.571,111.121,19.605,171.37,79.854,210.752C2520.146,1138.298,2878.974,1087.531,2885.292,1513.423z"/>
		<polygon style="fill:#E7F1FB;" points="1637.14,1088.209 1637.14,1037.476 1625.245,1037.476 1625.245,950.241 1561.472,950.241 
			1561.472,1037.476 1501.848,1037.476 1501.848,895.329 1436.054,895.329 1436.054,987.604 1421.05,987.604 1421.05,877.439 
			1355.256,877.439 1355.256,1083.99 1272.046,1083.99 1272.046,1204.438 1240.955,1204.438 1240.955,1150.815 1169.541,1150.815 
			1169.541,1182.53 1128.539,1182.53 1128.539,1040.551 1077.89,1040.551 1077.89,1145.642 1027.24,1145.642 1027.24,1530.707 
			1077.89,1530.707 1121.303,1530.707 1128.539,1530.707 1169.541,1530.707 1192.718,1530.707 1229.838,1530.707 1240.955,1530.707 
			1272.046,1530.707 1301.252,1530.707 1355.256,1530.707 1371.795,1530.707 1404.699,1530.707 1421.05,1530.707 1436.054,1530.707 
			1470.494,1530.707 1493.939,1530.707 1501.848,1530.707 1561.472,1530.707 1624.181,1530.707 1625.245,1530.707 1637.14,1530.707 
			1687.954,1530.707 1687.954,1088.209 		"/>
		<polygon style="fill:#E7F1FB;" points="2351.242,1262.591 2351.242,1530.705 1712.764,1530.705 1712.764,1297.385 
			1761.704,1297.385 1761.704,1233.714 1810.646,1233.714 1810.646,1319.742 1850.276,1319.742 1850.276,1300.52 1919.281,1300.52 
			1919.281,1333.011 1949.334,1333.011 1949.334,1260.029 2029.742,1260.029 2029.742,1134.876 2093.318,1134.876 
			2093.318,1201.625 2107.818,1201.625 2107.818,1145.716 2171.403,1145.716 2171.403,1231.85 2229.015,1231.85 2229.015,1178.989 
			2290.649,1178.989 2290.649,1231.85 2302.139,1231.85 2302.139,1262.591 		"/>
		<polygon style="fill:#E7F1FB;" points="1033.717,1157.482 1033.717,1529.348 451.625,1529.348 451.625,1205.754 496.245,1205.754 
			496.245,1117.44 540.866,1117.44 540.866,1236.753 576.988,1236.753 576.988,1210.094 639.914,1210.094 639.914,1255.164 
			667.3,1255.164 667.3,1153.945 740.606,1153.945 740.606,980.368 798.57,980.368 798.57,1072.944 811.79,1072.944 811.79,995.394 
			869.755,995.394 869.755,1114.85 922.29,1114.85 922.29,1041.544 978.477,1041.544 978.477,1114.85 988.953,1114.85 
			988.953,1157.482 		"/>
		<path style="fill:#DEEDFF;" d="M1722.253,477.729v1050.539h-34.302V496.788C1699.085,490.189,1710.494,483.827,1722.253,477.729z"
			/>
		<polygon style="fill:#DEEDFF;" points="1056.804,785.317 1056.804,1513.424 1056.804,1528.269 1022.512,1528.269 
			1022.512,1513.424 1022.512,788.016 		"/>
	</g>
	<g>
		<path style="fill:#F99746;" d="M1564.66,581.403v81.67c0,10.275-2.6,18.659-5.783,18.659h-0.822
			c-3.183,0-5.783-8.383-5.783-18.659v-72.561C1556.411,587.473,1560.54,584.433,1564.66,581.403z"/>
		<path style="fill:#F99746;" d="M1555.241,648.781c-45.141,0-81.734,38.694-81.734,86.425h163.468
			C1636.975,687.476,1600.381,648.781,1555.241,648.781z"/>
		<path style="fill:#FFB278;" d="M1561.751,649.835c-2.348-0.512-4.744-0.782-7.178-0.782c-29.411,0-53.252,38.572-53.252,86.153
			h14.357C1515.678,691.565,1535.736,655.507,1561.751,649.835z"/>
	</g>
	<g>
		<path style="fill:#F99746;" d="M2043.736,408.637v234.688c0,2.055-0.028,4.072-0.076,6.032
			c-0.439,18.305-2.839,32.375-5.716,32.375h-0.822c-2.667,0-4.923-12.111-5.583-28.466c-0.057-1.348-0.104-2.724-0.134-4.129
			c0-0.095-0.009-0.191-0.009-0.296c-0.039-1.797-0.058-3.642-0.058-5.515V407.557
			C2035.516,407.825,2039.646,408.188,2043.736,408.637z"/>
		<path style="fill:#F99746;" d="M2034.313,648.781c-45.142,0-81.735,38.694-81.735,86.425h163.47
			C2116.047,687.476,2079.452,648.781,2034.313,648.781z"/>
		<path style="fill:#FFB278;" d="M2040.823,649.835c-2.349-0.512-4.744-0.782-7.179-0.782c-29.41,0-53.253,38.572-53.253,86.153
			h14.357C1994.749,691.565,2014.808,655.507,2040.823,649.835z"/>
	</g>
	<path style="fill:#DEEDFF;" d="M2885.292,1529.565h-534.05v0.155h-187.094V455.81c88.438,68.204,132.38,201.644,109.381,368.225
		c-15.571,112.817,19.605,173.986,79.854,213.969C2520.146,1148.715,2878.974,1097.173,2885.292,1529.565z"/>
	<g>
		<g>
			<path style="fill:#82B378;" d="M2555.486,1402.705c0,0-20.609-24.043-1.271-39.314c0,0,14.125-8.552,25.643-7.857
				c0,0-16.32,27.367-11.04,30.089c5.279,2.722,15.986-31.806,15.986-31.806s32.145-3.117,42.484,1.854
				c0,0-27.479,22.487-21.691,23.826s35.469-20.733,35.469-20.733s29.917,5.092,28.322,23.342
				c-1.596,18.25-11.904,23.886-16.435,23.4c-4.531-0.485-31.034-10.603-31.612-6.89c-0.576,3.712,15.377,15.845,26.549,16.412
				c0,0-21.093,23.261-35.11,16.548c-14.019-6.713-15.215-17.355-23.953-21.346c-8.738-3.992-16.197-3.981-12.59,0.089
				c3.608,4.07,19.422,8.026,24.419,16.866c4.998,8.839,9.481,14.801-5.022,12.618c-14.503-2.183-38.077-12.794-39.112-24.946
				S2555.486,1402.705,2555.486,1402.705z"/>
			<g>
				<path style="fill:#82B378;" d="M2654.688,1382.598c0,0-81.257-3.131-99.202,20.107c0,0-3.969,11.886-16.181,22.709l-1.903,5.188
					c0,0,14.08-14.846,19.119-15.744C2556.521,1414.857,2548.642,1386.067,2654.688,1382.598z"/>
				<path style="fill:#82B378;" d="M2539.306,1425.414c0,0-17.441,12.898-18.652,35.945l3.165,0.283c0,0,5.57-23.83,15.639-33.149
					C2549.525,1419.175,2539.306,1425.414,2539.306,1425.414z"/>
			</g>
		</g>
		<g>
			<path style="fill:#A8D29F;" d="M2483.432,1372.469c0,0,32.783-18.359,17.484-43.274c0,0-12.24-15.299-25.353-19.232
				c0,0,6.993,37.154,0,38.028c-6.994,0.874-4.809-41.963-4.809-41.963s-34.532-16.609-48.082-15.299
				c0,0,21.418,36.28,14.425,35.406c-6.994-0.874-31.035-37.592-31.035-37.592s-35.406-6.557-41.088,14.425
				c-5.683,20.981,3.496,31.472,8.742,32.783c5.245,1.312,38.902,0.874,38.028,5.246c-0.874,4.37-23.604,11.364-36.28,7.431
				c0,0,13.987,34.531,32.346,32.783c18.359-1.749,24.041-13.113,35.406-13.988c11.365-0.873,19.67,2.187,13.988,5.246
				c-5.684,3.06-24.916,1.002-34.096,8.807c-9.179,7.804-16.609,12.611,0.438,16.108s47.646,1.312,53.765-11.802
				C2483.432,1372.469,2483.432,1372.469,2483.432,1372.469z"/>
			<g>
				<path style="fill:#82B378;" d="M2381.147,1309.524c0,0,91.793,29.724,102.284,62.944c0,0-0.438,14.861,8.741,31.908v6.558
					c0,0-9.616-22.293-14.861-25.353C2477.312,1385.582,2497.855,1356.732,2381.147,1309.524z"/>
				<path style="fill:#82B378;" d="M2492.173,1404.377c0,0,14.156,21.497,6.086,47.664l-3.642-0.978c0,0,3.535-28.822-3.871-43.317
					C2483.34,1393.25,2492.173,1404.377,2492.173,1404.377z"/>
			</g>
		</g>
		<g>
			<path style="fill:#A8D29F;" d="M2535.586,1347.149c0,0-43.214-24.2-23.047-57.043c0,0,16.133-20.167,33.419-25.353
				c0,0-9.219,48.977,0,50.129c9.22,1.152,6.338-55.314,6.338-55.314s45.52-21.896,63.382-20.167c0,0-28.234,47.824-19.015,46.672
				c9.219-1.152,40.909-49.553,40.909-49.553s46.672-8.643,54.162,19.015s-4.609,41.485-11.523,43.214
				c-6.914,1.729-51.281,1.153-50.129,6.915s31.114,14.98,47.824,9.795c0,0-18.438,45.52-42.639,43.215s-31.69-17.286-46.671-18.438
				c-14.981-1.152-25.929,2.881-18.438,6.914s32.843,1.321,44.943,11.608c12.1,10.287,21.895,16.625-0.577,21.234
				s-62.805,1.729-70.871-15.557C2535.586,1347.149,2535.586,1347.149,2535.586,1347.149z"/>
			<g>
				<path style="fill:#82B378;" d="M2670.416,1264.178c0,0-121.001,39.182-134.83,82.972c0,0,0.577,19.591-11.523,42.063v8.643
					c0,0,12.677-29.386,19.591-33.419C2543.653,1364.436,2516.572,1326.406,2670.416,1264.178z"/>
				<path style="fill:#82B378;" d="M2524.063,1389.212c0,0-18.66,28.336-8.021,62.829l4.801-1.289c0,0-4.66-37.992,5.103-57.101
					S2524.063,1389.212,2524.063,1389.212z"/>
			</g>
		</g>
		<path style="fill:#F1A34F;" d="M2534.131,1526.842c46.751,0,84.649-37.898,84.649-84.65h-169.3
			C2449.48,1488.943,2487.38,1526.842,2534.131,1526.842z"/>
		<path style="fill:#FFB973;" d="M2554.961,1526.194c-3.443,0.431-6.954,0.647-10.518,0.647c-46.75,0-84.646-37.9-84.646-84.65
			h21.03C2480.827,1485.383,2513.172,1521.016,2554.961,1526.194z"/>
		<path style="fill:#F1A34F;" d="M2619.949,1531.149h-171.638l0,0c0-5.768,4.676-10.443,10.443-10.443h150.751
			C2615.273,1520.706,2619.949,1525.382,2619.949,1531.149L2619.949,1531.149z"/>
		<rect x="2446.697" y="1442.191" style="fill:#D86713;" width="174.008" height="2.597"/>
	</g>
	<g>
		<path style="fill:#D1A586;" d="M2178.297,1265.888c1.537-37.303,4.852-69.751,8.819-92.38
			c6.325-36.072,12.019-56.826,12.084-57.047c0.833-3.172,12.869-16.008,39.628-15.611c26.758,0.396,24.221,17.229,24.221,17.229
			l0,0c0.002,0.569-0.074,1.101-0.192,1.496c-0.258,0.868-24.82,88.716-23.757,202.141c0.015,1.593,0.196,4.346,0.082,6.178
			c-0.001,0.01-62.011,1.58-62.025,0.001C2174.994,1317.981,2176.049,1290.513,2178.297,1265.888z"/>
		<path style="fill:#E5BD9E;" d="M2170.5,1321.156c0.018,1.581,0.864,2.846,1.896,2.846h0.024c1.031-0.023,1.853-1.289,1.865-2.846
			h53.143c0.018,1.581,0.863,2.846,1.896,2.846h0.024c1.05-0.023,1.884-1.33,1.871-2.929c-0.309-32.469,1.568-62.787,4.408-89.546
			c7.064-66.732,20.125-111.333,20.311-111.951c0.117-0.398,0.191-0.927,0.191-1.497c0,0,2.538-16.832-24.219-17.229
			c-26.763-0.398-38.798,12.44-39.631,15.613c-0.05,0.166-3.273,11.918-7.559,33.045c-1.42,6.999-2.951,15.025-4.526,23.997
			c-3.964,22.63-7.28,55.081-8.817,92.38C2169.129,1290.512,2168.338,1311.246,2170.5,1321.156z"/>
		<path style="fill:#DFB697;" d="M2170.5,1321.156c0.018,1.581,0.864,2.846,1.896,2.846h0.024c1.031-0.023,1.853-1.289,1.865-2.846
			h53.143c0.018,1.581,0.863,2.846,1.896,2.846h0.024c1.05-0.023,1.884-1.33,1.871-2.929c-0.309-32.469,1.568-62.787,4.408-89.546
			c-8.786-42.35-42.743-74.741-50.906-82.02c-1.42,6.999-2.951,15.025-4.526,23.997c-3.964,22.63-7.28,55.081-8.817,92.38
			C2169.129,1290.512,2168.338,1311.246,2170.5,1321.156z"/>
		<g>
			<path style="fill:#D1A586;" d="M2224.059,1320.617l-0.147-0.104c-0.044-0.031-0.077-0.054-0.096-0.267l-0.032-0.002
				c0.015-0.446-0.122-0.797-0.416-1.098c-1.674-1.71-8.111-1.64-16.269-1.547c-8.893,0.102-19.963,0.224-31.003-1.686
				c-5.703-0.987-1.854-44.321,2.2-84.861c0.688-6.885,1.232-12.323,1.478-15.523c2.641-34.492,17.898-95.697,18.042-96.18
				c0.676-2.579,9.854-12.14,29.754-11.823c7.526,0.111,12.86,1.958,15.853,5.488c3.025,3.568,2.474,7.502,2.449,7.668
				c0.005,0.382-0.05,0.808-0.152,1.153c-0.082,0.334-13.836,79.506-16.083,98.505c-3.708,31.343-5.181,96.142-5.246,99.761
				c0.002,0.045,0.001,0.091,0,0.137l-0.006,0.181L2224.059,1320.617z M2212.188,1316.955c5.95,0,10.146,0.271,11.612,1.769
				c0.002,0.002,0.004,0.004,0.006,0.006c0.024-1.495,0.103-4.29,0.251-9.559c0.175-6.198,0.475-15.88,0.911-26.8
				c0.764-19.106,2.09-45.39,4.066-62.1c2.303-19.468,16.031-98.361,16.104-98.607c0.084-0.285,0.132-0.659,0.13-1.024
				c0.009-0.084,0.534-3.889-2.316-7.242c-2.877-3.385-8.055-5.156-15.393-5.265c-19.565-0.257-28.507,8.89-29.161,11.381
				c-0.15,0.563-15.375,61.509-18.021,96.063c-0.245,3.207-0.79,8.647-1.479,15.536c-2.702,27.016-8.325,83.231-2.699,84.204
				c10.984,1.901,22.019,1.773,30.893,1.678C2208.901,1316.975,2210.607,1316.955,2212.188,1316.955z"/>
		</g>
		<path style="fill:#E5BD9E;" d="M2235.146,1324.004H2026.8c0,0,4.853-19.367,125.513-16.482
			C2237.701,1309.563,2235.146,1324.004,2235.146,1324.004z"/>
		<g>
			<path style="fill:#D1A586;" d="M2252.104,1526.29c-24.157-120.625-17.946-194.645-17.915-195.577
				c0.061-1.856-3.409-3.543-5.275-3.604c-1.891-0.033-10.229-0.548-11.193,1.041c-1.264,2.082-6.129,93.28,29.875,198.14H2252.104z
				"/>
		</g>
		<g>
			<path style="fill:#D1A586;" d="M2057.574,1526.29c24.157-120.625,17.945-194.645,17.914-195.577
				c-0.061-1.856,3.41-3.543,5.276-3.604c1.89-0.033,10.229-0.548,11.192,1.041c1.265,2.082,6.129,93.28-29.874,198.14H2057.574z"/>
		</g>
		<g>
			<path style="fill:#A0795F;" d="M2019.022,1526.29c24.157-120.625,17.945-194.645,17.915-195.577
				c-0.062-1.856,3.409-3.543,5.275-3.604c1.891-0.033,10.229-0.548,11.193,1.041c1.264,2.082,6.129,93.28-29.875,198.14H2019.022z"
				/>
		</g>
		<g>
			<path style="fill:#A0795F;" d="M2213.293,1526.29c-24.156-120.625-17.945-194.645-17.914-195.577
				c0.061-1.856-3.41-3.543-5.276-3.604c-1.89-0.033-10.228-0.548-11.192,1.041c-1.265,2.082-6.129,93.28,29.874,198.14H2213.293z"
				/>
		</g>
		<path style="fill:#D1A586;" d="M2026.647,1330.186h208.404c2.331,0,4.238-1.908,4.238-4.239v-2.709
			c0-2.331-1.907-4.238-4.238-4.238h-208.404c-2.331,0-4.239,1.907-4.239,4.238v2.709
			C2022.408,1328.277,2024.316,1330.186,2026.647,1330.186z"/>
	</g>
	<g>
		<path style="fill:#D1A586;" d="M1389.803,1262.269c1.538-37.818,4.853-70.715,8.82-93.657c6.325-36.57,12.019-57.61,12.084-57.834
			c0.833-3.217,12.869-16.229,39.627-15.828c26.758,0.402,24.221,17.468,24.221,17.468l0,0c0.002,0.577-0.074,1.115-0.191,1.517
			c-0.258,0.88-24.821,89.941-23.758,204.934c0.015,1.615,0.196,4.406,0.082,6.264c0,0.009-62.01,1.601-62.025,0
			C1386.5,1315.082,1387.556,1287.233,1389.803,1262.269z"/>
		<path style="fill:#E5BD9E;" d="M1382.007,1318.301c0.019,1.603,0.864,2.886,1.896,2.886h0.025
			c1.031-0.024,1.853-1.308,1.865-2.886h53.143c0.019,1.603,0.864,2.886,1.896,2.886h0.024c1.05-0.024,1.884-1.35,1.871-2.97
			c-0.309-32.918,1.569-63.654,4.409-90.784c7.064-67.653,20.125-112.871,20.31-113.497c0.117-0.404,0.191-0.94,0.191-1.519
			c0,0,2.538-17.063-24.218-17.468c-26.763-0.403-38.798,12.613-39.631,15.83c-0.049,0.168-3.273,12.082-7.558,33.501
			c-1.42,7.096-2.952,15.233-4.527,24.329c-3.964,22.942-7.28,55.842-8.817,93.656
			C1380.636,1287.232,1379.846,1308.254,1382.007,1318.301z"/>
		<path style="fill:#DFB697;" d="M1382.007,1318.301c0.019,1.603,0.864,2.886,1.896,2.886h0.025
			c1.031-0.024,1.853-1.308,1.865-2.886h53.143c0.019,1.603,0.864,2.886,1.896,2.886h0.024c1.05-0.024,1.884-1.35,1.871-2.97
			c-0.309-32.918,1.569-63.654,4.409-90.784c-8.787-42.935-42.744-75.773-50.907-83.152c-1.42,7.096-2.952,15.233-4.527,24.329
			c-3.964,22.942-7.28,55.842-8.817,93.656C1380.636,1287.232,1379.846,1308.254,1382.007,1318.301z"/>
		<g>
			<path style="fill:#D1A586;" d="M1435.566,1317.752l-0.149-0.104c-0.044-0.03-0.077-0.054-0.096-0.268l-0.033-0.003
				c0.015-0.457-0.125-0.816-0.426-1.125c-1.688-1.724-8.116-1.651-16.256-1.558c-8.894,0.099-19.963,0.227-31.004-1.709
				c-5.703-1.001-1.856-44.925,2.197-86.018c0.689-6.986,1.233-12.505,1.479-15.752c2.627-34.78,17.898-97.017,18.042-97.509
				c0.677-2.615,9.854-12.307,29.756-11.984c7.481,0.111,12.797,1.962,15.801,5.499c3.085,3.633,2.527,7.666,2.502,7.836
				c0.005,0.389-0.05,0.819-0.152,1.168c-0.083,0.338-13.833,80.595-16.083,99.867c-3.701,31.72-5.181,97.483-5.246,101.142
				c0.001,0.045,0.001,0.091,0,0.137l-0.006,0.182L1435.566,1317.752z M1423.696,1314.044c5.936,0,10.125,0.273,11.602,1.781
				c0.004,0.005,0.009,0.01,0.013,0.014c0.024-1.516,0.103-4.35,0.251-9.688c0.175-6.285,0.475-16.102,0.911-27.17
				c0.764-19.371,2.09-46.018,4.066-62.958c2.299-19.697,16.03-99.718,16.104-99.969c0.084-0.289,0.132-0.668,0.13-1.04
				c0.009-0.085,0.541-3.989-2.369-7.406c-2.887-3.392-8.047-5.166-15.337-5.275c-0.302-0.004-0.605-0.007-0.902-0.007
				c-18.927,0-27.613,9.058-28.257,11.544c-0.151,0.571-15.378,62.395-18.022,97.394l-0.304-0.023l0.304,0.023
				c-0.246,3.253-0.791,8.774-1.48,15.765c-2.701,27.386-8.322,84.371-2.699,85.356c10.985,1.927,22.023,1.8,30.892,1.7
				C1420.41,1314.063,1422.115,1314.044,1423.696,1314.044z"/>
		</g>
		<path style="fill:#E5BD9E;" d="M1446.653,1321.188h-208.347c0,0,4.853-19.635,125.513-16.711
			C1449.208,1306.547,1446.653,1321.188,1446.653,1321.188z"/>
		<g>
			<path style="fill:#D1A586;" d="M1463.611,1526.27c-24.157-122.292-17.945-197.334-17.915-198.279
				c0.061-1.883-3.41-3.593-5.276-3.654c-1.891-0.033-10.229-0.555-11.193,1.056c-1.264,2.111-6.129,94.569,29.874,200.878H1463.611
				z"/>
		</g>
		<g>
			<path style="fill:#D1A586;" d="M1269.081,1526.27c24.157-122.292,17.945-197.334,17.915-198.279
				c-0.061-1.883,3.409-3.593,5.276-3.654c1.89-0.033,10.228-0.555,11.193,1.056c1.264,2.111,6.129,94.569-29.875,200.878H1269.081z
				"/>
		</g>
		<g>
			<path style="fill:#A0795F;" d="M1230.529,1526.27c24.157-122.292,17.946-197.334,17.915-198.279
				c-0.061-1.883,3.409-3.593,5.276-3.654c1.89-0.033,10.228-0.555,11.193,1.056c1.264,2.111,6.129,94.569-29.874,200.878H1230.529z
				"/>
		</g>
		<g>
			<path style="fill:#A0795F;" d="M1424.8,1526.27c-24.157-122.292-17.945-197.334-17.915-198.279
				c0.061-1.883-3.41-3.593-5.276-3.654c-1.89-0.033-10.228-0.555-11.192,1.056c-1.264,2.111-6.129,94.569,29.874,200.878H1424.8z"
				/>
		</g>
		<path style="fill:#D1A586;" d="M1238.184,1327.454h208.346c2.347,0,4.268-1.92,4.268-4.268v-2.806
			c0-2.347-1.921-4.268-4.268-4.268h-208.346c-2.348,0-4.268,1.921-4.268,4.268v2.806
			C1233.916,1325.534,1235.836,1327.454,1238.184,1327.454z"/>
	</g>
	<g>
		<g>
			<path style="fill:#6BB7BF;" d="M1525.788,1163.025c0,0,17.216,6.987,29.453-10.57
				C1555.241,1152.455,1535.378,1149.086,1525.788,1163.025z"/>
			<path style="fill:#6BB7BF;" d="M1524.576,1155.82c0,0-1.207-6.15-8.423-6.362
				C1516.152,1149.458,1518.869,1155.688,1524.576,1155.82z"/>
			<path style="fill:#6BB7BF;" d="M1528.207,1119.813c0,0,8.345,0.892,11.474-8.254
				C1539.681,1111.56,1530.637,1112.567,1528.207,1119.813z"/>
			<g>
				<path style="fill:#6BB7BF;" d="M1548.014,998.885c-16.842-3.611-17.127-17.388-17.127-17.388
					C1550.722,987.765,1548.014,998.885,1548.014,998.885z"/>
				<path style="fill:#6BB7BF;" d="M1549.17,995.743c0,0,10.509,4.265,17.979-6.452
					C1567.148,989.292,1555.024,987.235,1549.17,995.743z"/>
				<g>
					<path style="fill:#6BB7BF;" d="M1526.115,1203.431l-2.176,2.505c-0.33,0.38-0.957,0.143-0.957-0.361
						c0.123-70.912,9.127-133.914,16.689-171.085c8.253-40.569,16.623-64.552,16.707-64.79l0,0
						c-0.083,0.237-7.633,24.606-15.86,65.058c-7.573,37.234-16.238,85.897-14.045,167.716
						C1526.482,1202.824,1526.346,1203.165,1526.115,1203.431z"/>
				</g>
				<path style="fill:#F99746;" d="M1556.235,960.033c-2.686,2.159-12.972,11.359-2.994,18.454c0,0,7.647,2.423,10.181-3.469
					c1.933-4.497,2.456-9.511,2.595-11.634c0.037-0.552-0.38-1.021-0.931-1.071c-0.589-0.054-1.374-0.185-2.16-0.49
					c-0.947-0.368-1.427-1.797-2.706-2.111c-0.802-0.197-1.617-0.366-2.549-0.284
					C1557.143,959.475,1556.648,959.702,1556.235,960.033z"/>
				<path style="fill:#6BB7BF;" d="M1550.525,975.92c0,0,3.045,2.442,1.919,6.341l-0.031,1.443c0,0,0.812-3.608,4.546-4.724
					C1556.959,978.981,1553.591,979.355,1550.525,975.92z"/>
				<path style="fill:#8AD8DB;" d="M1548.014,998.885c-16.842-3.611-17.127-17.388-17.127-17.388S1544.227,988.824,1548.014,998.885
					z"/>
			</g>
			<g>
				<path style="fill:#6BB7BF;" d="M1531.833,989.447c0,0-10.592,4.054-17.845-6.81
					C1513.988,982.637,1526.151,980.823,1531.833,989.447z"/>
				<g>
					<path style="fill:#6BB7BF;" d="M1550.722,1197.556l2.125,2.548c0.322,0.387,0.954,0.161,0.963-0.342
						c1.298-70.901-6.442-134.07-13.258-171.386c-7.439-40.726-15.327-64.872-15.405-65.111l0,0
						c0.078,0.238,7.139,24.754,14.553,65.362c6.825,37.379,14.514,86.205,10.683,167.964
						C1550.367,1196.941,1550.497,1197.285,1550.722,1197.556z"/>
				</g>
				<path style="fill:#F99746;" d="M1525.485,953.604c2.642,2.212,12.742,11.616,2.624,18.511c0,0-7.695,2.269-10.11-3.673
					c-1.843-4.534-2.265-9.558-2.361-11.684c-0.025-0.553,0.4-1.013,0.953-1.053c0.59-0.042,1.377-0.157,2.169-0.447
					c0.954-0.349,1.463-1.768,2.748-2.056c0.805-0.181,1.624-0.333,2.555-0.232C1524.588,953.027,1525.079,953.264,1525.485,953.604
					z"/>
				<path style="fill:#6BB7BF;" d="M1530.875,969.602c0,0-3.093,2.38-2.045,6.301l0.002,1.443c0,0-0.739-3.623-4.45-4.813
					C1524.382,972.533,1527.741,972.974,1530.875,969.602z"/>
			</g>
			<g>
				<path style="fill:#6BB7BF;" d="M1536.322,977.029c0,0,11.186,1.871,16.139-10.217
					C1552.461,966.812,1540.18,967.449,1536.322,977.029z"/>
				<g>
					<path style="fill:#6BB7BF;" d="M1559.114,1184.746l-1.578,2.918c-0.239,0.443-0.903,0.349-1.012-0.144
						c-15.345-69.232-20.296-132.681-21.022-170.606c-0.792-41.393,2.146-66.624,2.175-66.874l0,0
						c-0.03,0.249-2.083,25.678-1.291,66.95c0.729,37.99,2.885,87.371,22.867,166.742
						C1559.34,1184.073,1559.281,1184.437,1559.114,1184.746z"/>
				</g>
				<path style="fill:#F99746;" d="M1535.43,940.638c-2.15,2.693-10.183,13.914,1.103,18.663c0,0,7.992,0.697,9.179-5.605
					c0.906-4.81,0.323-9.818-0.004-11.92c-0.085-0.547-0.593-0.914-1.143-0.843c-0.586,0.075-1.381,0.119-2.215-0.008
					c-1.004-0.152-1.785-1.442-3.102-1.47c-0.825-0.017-1.658-0.004-2.55,0.279C1536.194,939.895,1535.761,940.225,1535.43,940.638z
					"/>
				<path style="fill:#6BB7BF;" d="M1533.322,957.388c0,0,3.504,1.719,3.255,5.77l0.285,1.415c0,0,0.005-3.698,3.406-5.601
					C1540.269,958.972,1537.063,960.071,1533.322,957.388z"/>
			</g>
			<path style="fill:#6BB7BF;" d="M1545.552,964.573c0,0,0-8.857,7.631-11.635C1553.184,952.938,1554.864,960.326,1545.552,964.573z
				"/>
			<path style="fill:#ED9F4A;" d="M1527.628,950.341c0,0,0.225-6.758-6.027-8.707
				C1521.602,941.634,1520.097,947.925,1527.628,950.341z"/>
			<path style="fill:#ED9F4A;" d="M1548.139,990.997c0.226,0.196,3.258-6.575-2.912-12.016
				C1545.228,978.981,1542.648,986.227,1548.139,990.997z"/>
			<path style="fill:#6BB7BF;" d="M1552.461,990.469c-0.171,0.047-0.048-3.369,3.159-3.857
				C1555.62,986.612,1556.163,989.454,1552.461,990.469z"/>
			<path style="fill:#6BB7BF;" d="M1520.492,978.981c0,0-2.707-5.603-11.367-4.629
				C1509.125,974.352,1510.425,980.362,1520.492,978.981z"/>
		</g>
		<path style="fill:#F99746;" d="M1568.364,1211.73h-55.521c-3.73,0-6.593-3.309-6.057-7l25.843-178.12
			c0.241-1.662,1.666-2.896,3.346-2.896h8.25c1.789,0,3.308,1.311,3.571,3.08l26.457,178.107
			C1574.787,1208.499,1572,1211.73,1568.364,1211.73z"/>
		<g>
			<path style="fill:#FFB278;" d="M1525.143,1206.344l13.719-182.588c-1.478,0.198-2.678,1.344-2.897,2.854l-25.843,178.12
				c-0.536,3.691,2.327,7,6.058,7h11.098C1525.846,1210.443,1524.981,1208.488,1525.143,1206.344z"/>
		</g>
	</g>
	<g>
		<path style="fill:#FFB27D;" d="M2069.631,1192.278c0,0-38.088,43.502-45.882,42.792c-7.966-0.725-12.825-3.234-19.755,0
			c-4.98,2.325-20.725,14.988-16.498,14.149c4.228-0.839,11.875-1.819,13.895-2.012c2.779-0.265,7.244-0.325,10.271-0.852
			c1.916-0.334,8.835-0.528,11.143-0.604c10.023-0.33,57.437-28.028,57.437-28.028L2069.631,1192.278z"/>
		<g>
			<path style="fill:#C45446;" d="M2006.96,1145.819c-1.513-0.935-4.459-0.569-6.593-0.122v-3.09c0-0.684-0.048-1.355-0.131-2.018
				h-32.012c-0.084,0.662-0.132,1.334-0.132,2.018v6.282c0,8.876,7.262,16.138,16.138,16.138c4.806,0,9.136-2.133,12.099-5.494
				l-0.001,0.003c0,0,7.616-1.875,10.007-4.714S2009.501,1147.389,2006.96,1145.819z M2005.271,1151.628
				c-0.809,2.089-4.44,3.213-6.231,3.649c0.717-1.648,1.163-3.438,1.288-5.312c1.105-1.513,2.851-2.398,4.13-2.166
				C2005.602,1148.007,2006.294,1148.984,2005.271,1151.628z"/>
			<path style="fill:#E37970;" d="M1970.714,1142.606v6.284c0,8.872,7.261,16.14,16.133,16.14c0.734,0,1.462-0.053,2.169-0.157
				c-7.856-1.062-13.964-7.844-13.964-15.982v-6.284c0-0.682,0.046-1.356,0.131-2.019h-4.338
				C1970.76,1141.25,1970.714,1141.925,1970.714,1142.606z"/>
			<rect x="1977.632" y="1163.62" style="fill:#C45446;" width="13.173" height="1.973"/>
		</g>
		<path style="fill:#1C468A;" d="M2096.058,971.378c0,0,1.723-21.85,33.149-16.176c8.309,1.5,14.02-13.315,27.621-8.036
			c29.286,11.368,31.008-3.642,39.473,17.424c3.543,8.818,26.073,19.082,19.192,34.32c-6.881,15.238,4.633,25.486-3.456,37.427
			c-4.186,6.179-2.484,17.224-22.232,17.617c-9.835,0.196-25.153,18.421-36.19,21.73s-44.18-1.465-42.931-16.608
			c0.975-11.814-12.805-10.83-21.27-24.412c-7.397-11.872,5.804-14.862-1.256-34.055
			C2082.984,986.543,2096.463,983.116,2096.058,971.378z"/>
		<g>
			<path style="fill:#FFB27D;" d="M1923.296,1508.88c0.675,7.309-9.5,9.086-21.285,9.673c-11.784,0.587-8.223,3-24.372,5.925
				c-16.15,2.925-22.622-1.494-23.791-3.677c-1.041-1.936,6.468-4.963,14.469-8.385c1.008-0.428,2.016-0.868,3.023-1.309
				c9.007-3.96,14.06-12.037,21.081-19.525c6.65-7.093,12.965-29.803,12.965-29.803l21.946-4.687c0,0-6.162,20.439-8.301,29.165
				c-1.259,5.133,0.598,10.871,2.246,15.238C1922.165,1503.872,1923.063,1506.305,1923.296,1508.88z"/>
			<path style="fill:#C65447;" d="M1902.011,1518.553c-11.784,0.587-8.223,3-24.372,5.925c-16.15,2.925-22.622-1.494-23.791-3.677
				c-1.041-1.936,6.468-4.963,14.469-8.385l0.125,0.136c0,0,11.355,3.856,24.463,0.292c10.683-2.9,21.013-9.285,28.373-11.348
				c0.888,2.376,1.785,4.809,2.019,7.384C1923.971,1516.188,1913.796,1517.966,1902.011,1518.553z"/>
		</g>
		<path style="fill:#163560;" d="M2117.629,1232.194c0,0-121.624,5.465-149.079,22.792s-71.486,219.153-71.486,219.153
			s2.718,2.179,8.786,2.835c5.646,0.611,18.077-2.707,18.077-2.707s63.28-90.305,67.738-113.054
			c4.457-22.75,3.369-43.05,13.519-43.594c10.15-0.544,136.674,15.382,155.812-18.334S2117.629,1232.194,2117.629,1232.194z"/>
		<g>
			<path style="fill:#FFB27D;" d="M1973.474,1509.701c0.674,7.309-9.501,9.086-21.285,9.673s-8.224,3-24.373,5.926
				c-16.149,2.925-22.621-1.495-23.79-3.677c-1.041-1.936,6.467-4.964,14.469-8.386c1.007-0.427,2.016-0.868,3.023-1.309
				c9.006-3.96,14.06-12.036,21.08-19.524c6.651-7.094,12.966-29.804,12.966-29.804l21.946-4.687c0,0-6.162,20.439-8.302,29.166
				c-1.258,5.132,0.599,10.87,2.247,15.237C1972.343,1504.693,1973.239,1507.126,1973.474,1509.701z"/>
			<path style="fill:#C65447;" d="M1952.188,1519.374c-11.784,0.587-8.224,3-24.373,5.926c-16.149,2.925-22.621-1.495-23.79-3.677
				c-1.041-1.936,6.467-4.964,14.469-8.386l0.125,0.136c0,0,11.355,3.856,24.462,0.293c10.684-2.901,21.014-9.286,28.374-11.349
				c0.888,2.376,1.784,4.809,2.019,7.384C1974.147,1517.01,1963.973,1518.787,1952.188,1519.374z"/>
		</g>
		<path style="fill:#1C468A;" d="M2164.775,1235.07c0,0-129.55,6.133-156.309,24.515c-26.76,18.383-62.902,221.77-62.902,221.77
			s2.8,2.071,8.891,2.491c5.664,0.391,17.958-3.409,17.958-3.409s59.717-92.698,63.286-115.604
			c3.568-22.906,1.69-43.148,11.812-44.087s137.169,10.05,154.979-24.385C2220.302,1261.925,2164.775,1235.07,2164.775,1235.07z"/>
		<path style="fill:#FFB27D;" d="M2203.553,1069.549c-0.047-0.071-0.106-0.131-0.165-0.201c-1.028-1.157-2.256-2.221-3.614-3.165
			l-0.047-0.036c0,0,0,0-0.012,0c-10.583-7.393-29.492-8.976-29.492-8.976v0.012v0.001c-0.002-0.003-0.002-0.007-0.003-0.01
			c0,0-2.066-0.196-5.34-0.345c-2.479-6.428-5.302-15.946-6.177-29.835l-1.875,0.501l-31.521,8.454c0,0,1.396,10.005,2.05,19.473
			c0.145,2.074,0.25,4.12,0.3,6.033c-0.913,0.333-20.526,3.098-24.79,7.68c-4.264,4.595-12.791,35.113-14.941,40.522l121.355,1.984
			C2209.281,1111.642,2212.328,1079.93,2203.553,1069.549z"/>
		<path style="fill:#6BB7BF;" d="M2208.033,1286.604c-14.367,1.366-62.792-27.874-78.927-37.385
			c-0.287-0.162-0.555-0.325-0.813-0.478c-6.72-3.948-16.174-5.813-25.159-7.304c-11.451-1.873-22.138-3.135-25.561-7.226
			c-4.071-4.875,7.905-10.276,17.531-15.878c4.846-2.829,9.109-5.716,10.438-8.593c1.022-2.266,0.946-7.227,0.258-13.574v-0.009
			c-0.114-1.186-0.268-2.419-0.439-3.699c-0.784,1.625-1.759,3.307-2.888,4.989c-2.828,4.234-6.557,8.508-10.285,12.034
			c-4.568,4.331-9.118,7.552-11.948,8.24c-1.902,0.459-3.813,0.22-5.706-0.517c-5.037-1.969-9.903-7.513-13.765-12.856
			c-0.908-1.262-1.769-2.523-2.553-3.718c-2.638-3.996-4.512-7.313-5.219-8.097c-2.15-2.38,8.65-7.093,13.086-10.63
			c4.416-3.546,21.832-72.245,21.832-72.245c2.151-5.41,10.678-35.931,14.94-40.529c0,0,16.633,20.313,38.197,19.146
			c21.412-1.147,58.088-21.804,58.652-22.128c1.876,0.847,3.843,3.402,3.843,3.402c8.774,10.381,5.726,42.088,5.726,42.088
			s-16.785,73.975-16.785,81.44c0,13.688,11.317,45.155,16.719,67.819C2212.641,1275.258,2213.701,1286.068,2208.033,1286.604z"/>
		<path style="fill:#F4A269;" d="M2125.308,1035.949c0,0,1.397,10.005,2.05,19.473c17.841-1.695,26.201-18.631,29.471-27.927
			L2125.308,1035.949z"/>
		<path style="fill:#FFB27D;" d="M2119.937,1045.314c0,0,42.337-2.122,40.609-28.467c-1.728-26.345,2.573-44.361-24.53-44.121
			c-27.104,0.241-31.691,10.638-33.254,19.571C2101.199,1001.232,2108.879,1045.188,2119.937,1045.314z"/>
		<path style="fill:#1C468A;" d="M2118.153,982.106c0,0,10.119-2.362,13.426,2.559c3.307,4.921,0.944,7.677,8.326,9.744
			c7.381,2.067,9.892,1.919,9.153,7.086s7.419,9.006,7.77,13.14c0.35,4.134,3.745,6.2,6.993,6.496
			c3.248,0.295,1.772-53.296-10.776-55.658s-24.655,0.443-28.346,3.396C2121.008,971.821,2118.153,982.106,2118.153,982.106z"/>
		<path style="fill:#1C468A;" d="M2118.153,982.106c0,0-9.842-0.689-11.613,4.921c-1.771,5.61,0.591,6.939-1.919,10.334
			c-2.511,3.395-1.059,9.418-1.059,9.418s-19.463-35.844,1.059-38.206C2125.142,966.211,2124.601,970.394,2118.153,982.106z"/>
		<path style="fill:#599DAD;" d="M2105.295,1184.02c-2.811,8.449-7.838,17.74-13.105,25.464c-4.568,4.331-9.118,7.552-11.948,8.24
			c-1.902,0.459-3.813,0.22-5.706-0.517c-5.037-1.969-9.903-7.513-13.765-12.856c-0.908-1.262-1.769-2.523-2.553-3.718
			c13.449-10.792,38.942-35.482,41.591-69.273C2103.432,1085.21,2105.486,1186.142,2105.295,1184.02z"/>
		<path style="fill:#599DAD;" d="M2074.535,1217.207c4.693-7.159,14.242-14.214,27.939-19.758
			c-6.309,9.444-17.1,19.032-22.233,20.274C2078.339,1218.183,2076.428,1217.943,2074.535,1217.207z"/>
		<path style="fill:#599DAD;" d="M2186.459,1128.396c0,0-10.572,106.236-57.353,120.823c-0.287-0.162-0.555-0.325-0.813-0.478
			c-6.72-3.948-16.174-5.813-25.159-7.304c-11.451-1.873-22.138-3.135-25.561-7.226c-4.071-4.875,7.905-10.276,17.531-15.878
			c4.846-2.829,9.109-5.716,10.438-8.593c1.022-2.266,0.946-7.227,0.258-13.574v-0.009
			C2151.196,1179.374,2186.459,1128.396,2186.459,1128.396z"/>
		<path style="fill:#FFB27D;" d="M2198.363,1096.937c-4.899-22.084-27.133-9.412-27.133-9.412
			c-7.706-1.759-64.278,89.938-68.808,92.015c-3.838,1.76-55.977-13.383-71.806-18.047c-4.086-3.207-18.447-14.351-20.96-14.54
			c-2.936-0.22-22.555,4.82-22.433,7.935c0.122,3.113,4.716,7.684,11.959,8.839c5.487,0.876,14.799,4.49,20.732,5.394l0,0
			c0,0,57.546,39.197,82.04,43.979C2124.008,1217.402,2203.264,1119.02,2198.363,1096.937z"/>
		<path style="fill:#6BB7BF;" d="M2067.943,1171.875c0,0-13.264,34.084,2.627,47.04c15.892,12.957,50.378,8.599,88.152-44.081
			c37.774-52.679,53.147-81.361,33.539-89.734c-19.607-8.374-35.814,4.764-45.873,25.252c-10.456,21.299-29.725,50.789-41.286,51.91
			C2093.54,1163.383,2067.943,1171.875,2067.943,1171.875z"/>
	</g>
	<g>
		<path style="fill:#FFB27D;" d="M1735.372,851.52l0.028,5.146c0,0-1.401,16.092,18.414,18.442
			c19.814,2.357,36.065,2.046,35.528-10.371c-1.785-9.615-4.983-24.539-5.115-32.495c-0.049-2.956,0.153-6.094,0.704-9.636
			l-38.396-0.767l-11.309,1.847L1735.372,851.52z"/>
		<path style="fill:#E2915A;" d="M1735.227,823.687l0.146,27.833c4.079,1.896,8.681,3.054,13.841,3.054
			c17.646,0,29.053-12.941,35.015-22.333c-0.049-2.956,0.153-6.094,0.704-9.636l-38.396-0.767L1735.227,823.687z"/>
		<path style="fill:#FFB27D;" d="M1787.873,816.427c-4.454,23.976-35.392,23.189-48.761,21.682
			c-3.763-0.418-6.129-0.899-6.129-0.899c-4.243-1.133-6.61-7.815-7.71-16.568c-2.183-17.322,0.575-42.749,3.5-49.253
			c4.405-9.786,12.7-20.37,43.854-12.733C1803.788,766.298,1793.59,785.708,1787.873,816.427z"/>
		<path style="fill:#233862;" d="M1813.188,1526.284h-43.838c0.327-2.299,1.444-9.293,3.496-15.735
			c0.711-2.244,1.541-4.424,2.483-6.315c4.264-8.511,31.344-3.098,31.344-3.098s2.516,2.155,4.479,10.387
			C1812.022,1515.147,1812.789,1519.961,1813.188,1526.284z"/>
		<path style="fill:#233862;" d="M1680.714,1512.448c-0.12,5.964-0.87,11.608-3.034,13.836h-86.711
			c1.102-3.138,4.224-7.855,13.125-9.301c10.115-1.637,25.884-6.507,35.089-16.239c3.281-3.457,5.724-7.536,6.794-12.303
			c4.08-18.163,33.731,5.564,33.731,5.564S1680.905,1503.57,1680.714,1512.448z"/>
		<path style="fill:#2B478B;" d="M1738.389,1316.111c-1.208,6.65-1.974,12.105-2.177,16.018
			c-2.757,53.769-45.261,176.709-52.863,179.575c-11.764,4.439-30.288-4.996-39.98-8.084c-4.016-1.282-6.726-5.333-5.832-9.442
			c21.049-96.767,28.785-236.106,31.6-318.603c1.422-41.553,8.555-70.257,8.555-70.257s103.666-27.659,104.281,7.33
			C1782.518,1143.609,1747.633,1265.035,1738.389,1316.111z"/>
		<path style="fill:#233862;" d="M1738.389,1316.111l-69.253-140.536c1.422-41.553,8.555-70.257,8.555-70.257
			s103.666-27.659,104.281,7.33C1782.518,1143.609,1747.633,1265.035,1738.389,1316.111z"/>
		<path style="fill:#2B478B;" d="M1715.322,1112.771l54.803,397.191c0,0,24.066,5.804,42.785,1.161
			c0,0,16.044-211.245,14.707-262.315s11.516-136.654-2.933-146.094C1810.236,1093.276,1715.322,1112.771,1715.322,1112.771z"/>
		<path style="fill:#233862;" d="M1719.213,748.568c0,0,13.714-1.055,29.889-8.087c13.128-5.708,29.689,0.578,35.066,3.411
			c-0.145-0.867-0.49-2.049-1.312-3.235c0,0,2.414,1.712,2.77,4.104c0.249,0.183,0.36,0.31,0.296,0.352c0,0,2.736-0.5,4.494,0.291
			c0,0-1.23-0.176-1.67,0.615c-0.046,0.084-0.115,0.154-0.197,0.218c20.479,9.895,22.37,42.259,15.78,49.748
			c-7.929,9.01-17.436,29.3-17.436,29.3s-3.467-4.794-2.025-12.722c1.441-7.928-5.405-7.928-14.056-11.532
			c-8.648-3.604-1.441-13.695-9.01-19.821c-7.567-6.127-35.317-2.523-34.957-7.208
			C1716.545,770.248,1719.213,749.623,1719.213,748.568z"/>
		<path style="fill:#E9F3FE;" d="M1794.016,871.636l-12.618,270.725c0,0-105.308,1.721-102.301-22.11
			c3.007-23.83,37.958-240.324,37.958-240.324L1794.016,871.636z"/>
		<path style="fill:#22407A;" d="M1831.613,1025.09c-6.266,18.795,5.547,81.863,9.758,103.229c0.925,4.519,1.541,7.189,1.541,7.189
			c-14.585,23.725-67.996,23.418-67.996,23.418c-10.271-45.4-15.613-117.709-15.613-117.709l40.982-179.648l51.563,47.66
			c0,0-3.902,29.069-8.73,58.649C1839.316,991.297,1835.003,1015.127,1831.613,1025.09z"/>
		<path style="fill:#FFFFFF;" d="M1743.975,820.371c0,0-1.002,3.092-8.807,1.963c0,0-6.553-0.947-6.067-4.396
			C1729.101,817.938,1735.689,815.996,1743.975,820.371z"/>
		<path style="fill:#22407A;" d="M1684.785,875.496c0,0-0.01,0.046-0.023,0.114c-2.491,2.414-72.791,70.668-86.411,97.403
			c-13.867,27.118,63.374,81.143,63.374,81.143s4.972,1.965,8.42,1.196c-3.641,29.984-7.729,57.651-5.308,69.461
			c4.378,21.344,24.121,28.512,24.121,26.87c0-0.522,7.22-77.563,11.143-117.76c8.41-86.192,29.47-171.808,29.47-171.808
			C1706.583,864.505,1684.785,875.496,1684.785,875.496z M1642.928,984.724c-0.103-0.105-0.103-0.311-0.103-0.411
			c0-3.904,14.894-12.533,31.02-22.699c0.206-0.206,0.309-0.311,0.309-0.311c0.011-0.007,0.021-0.014,0.032-0.02
			c-0.287,8.308-0.256,16.458,0.238,24.046c0.914,14.073-0.107,30.893-1.811,48.019
			C1664.936,1021.357,1644.429,989.14,1642.928,984.724z"/>
		<g>
			<path style="fill:#D9E9F9;" d="M1797,861.245c0.129-2.583-12.109-6.153-12.109-6.153s-14.007,19.421-37.084,19.756
				c0,0,6.576,12.799,14.327,16.113C1762.134,890.961,1796.238,876.588,1797,861.245z"/>
			<path style="fill:#D9E9F9;" d="M1747.807,874.394c0,0-12.225-7.247-12.267-15.104c0,0-7.896-0.988-11.345,2.84
				c0,0-2.898,13.465,0.946,21.286C1725.142,883.416,1742.746,880.734,1747.807,874.394z"/>
			<path style="fill:#BA4C43;" d="M1756.106,873.229l-16.578-3.973c0,0-2.165,0.188-2.105,2.888c0.06,2.7,4.669,10.59,6.71,11.221
				C1746.175,883.996,1760.027,878.692,1756.106,873.229z"/>
			<path style="fill:#E9F3FE;" d="M1795.069,859.912c0.129-2.583-8.154-7.907-8.154-7.907s-16.031,18.737-39.108,19.072
				c0,0,6.576,12.799,14.327,16.113C1762.134,887.19,1794.308,875.255,1795.069,859.912z"/>
			<path style="fill:#E9F3FE;" d="M1747.807,871.077c0,0-12.364-6.554-12.406-14.412c0,0-7.463,3.285-10.912,7.113
				c0,0-3.191,8.5,0.653,16.32C1725.142,880.099,1742.746,877.417,1747.807,871.077z"/>
			<g>
				<path style="fill:#C65447;" d="M1715.398,1057.822c0.565,6.323,3.466,12.213,8.138,16.517l7.343,6.766
					c1.843,1.699,4.742,1.464,6.293-0.505l9.096-11.552c2.439-3.098,3.586-7.018,3.213-10.941
					c-0.852-8.741-2.437-25.583-3.705-41.837c-1.032-13.171-1.86-25.965-1.923-33.749c-0.199-24.852,4.73-104.102,4.73-104.102
					l-5.958,0.311c0,0-14.797,30.763-22.545,72.619c-1.912,10.303-3.386,21.272-4.118,32.629
					C1715.962,983.978,1712.855,1029.242,1715.398,1057.822z"/>
				<path style="fill:#BA4C43;" d="M1715.398,1057.822c0.565,6.323,3.466,12.213,8.138,16.517l7.343,6.766
					c1.843,1.699,4.742,1.464,6.293-0.505l9.096-11.552c2.439-3.098,3.586-7.018,3.213-10.941
					c-0.852-8.741-2.437-25.583-3.705-41.837c-16.465-18.498-23.137-44.06-25.695-64.921c-1.912,10.303-3.386,21.272-4.118,32.629
					C1715.962,983.978,1712.855,1029.242,1715.398,1057.822z"/>
			</g>
		</g>
		<path style="fill:#FFB27D;" d="M1656.8,1058.555c0-6.901,6.068-12.44,12.892-11.404c1.895,0.287,3.604,1.068,4.787,2.644
			c4.695,6.25,9.161,24.433,0.842,25.282c-3.386,0.346-7.735-2.029-11.086-4.576c-3.403-2.585-7.435-6.636-7.435-10.91V1058.555z"/>
		<path style="fill:#233862;" d="M1841.371,1128.318c-15.099-15.716-41.188-46.633-40.264-72.006
			c1.232-35.538,42.01-88.435,42.01-88.435c-3.801,23.419-8.114,47.249-11.504,57.212
			C1825.348,1043.885,1837.16,1106.953,1841.371,1128.318z"/>
		<path style="fill:#FFB27D;" d="M1840.897,1066.502c0,0-10.854,5.427-17.444,2.713c-6.59-2.713-14.343-4.752-21.708,3.633
			c-7.366,8.385-8.916,14.199-7.366,17.301c1.551,3.101,18.723,1.938,21.572,0c2.85-1.938,7.355-6.71,10.215-5.879
			c7.888,2.293,14.53-3.725,18.249-8.517C1846.658,1072.861,1840.605,1071.461,1840.897,1066.502z"/>
		<path style="fill:#22407A;" d="M1800.285,861.568c0,0,43.233,4.786,53.429,23.613c10.196,18.827,63.213,95.127,61.478,126.836
			c-1.736,31.709-72.322,67.265-72.322,67.265s-15.633-6.606-15.867-13.714s48.799-49.588,45.826-57.515
			c-2.973-7.927-56.964-70.626-62.173-91.299S1800.285,861.568,1800.285,861.568z"/>
		<path style="fill:#233862;" d="M1674.153,961.303c0,0-0.103,0.106-0.309,0.311c-16.126,10.166-31.02,18.795-31.02,22.699
			c-2.156-6.883,18.797-35.644,25.576-41.497C1675.283,936.858,1674.153,961.303,1674.153,961.303z"/>
		<path style="fill:#233862;" d="M1786.915,852.005c0,0-32.821,137.466-27.598,189.249c0,0,12.068-55.336,41.106-100.663
			c0,0-10.597-9.32-10.021-12.756c0,0,7.866-2.332,15.499-0.762c0,0-0.844-59.255-5.603-65.515
			C1795.539,855.297,1786.915,852.005,1786.915,852.005z"/>
		<path style="fill:#233862;" d="M1735.4,856.666c0.668-0.393-32.525,134.329-35.3,177.258c0,0,3.289-76.607,2.966-98.686
			c0,0,13.631-7.217,13.631-9.749c0-2.532-14.542-9.378-14.542-9.378s9.209-47.177,14.234-52.376
			C1721.415,858.536,1735.4,856.666,1735.4,856.666z"/>
	</g>
	<g>
		<g>
			<path style="fill:#FFB27D;" d="M1308.466,1452.108c1.735,1.988,1.956,4.209,1.097,6.582c0,0.009-0.006,0.023-0.017,0.032
				c-1.588,4.387-6.833,9.286-12.925,14.179c-0.778,0.628-1.471,1.2-2.074,1.729c-0.158,0.14-0.316,0.278-0.466,0.418
				c-0.123,0.107-0.241,0.221-0.358,0.323c-5.681,5.237-3.543,6.438-13.749,17.063c-11.638,12.109-19.651,12.327-21.93,11.224
				c-1.928-0.94,1.99-7.362,6.331-14.58c0.211-0.348,0.417-0.7,0.633-1.053c0.578-0.959,1.153-1.934,1.727-2.898
				c5.088-8.688,3.781-12.764,2.575-25.691c-0.98-10.507-16.345-58.694-16.345-58.694l22.302-3.842c0,0,6.717,38.372,14.117,44.281
				c3.957,3.149,8.386,3.189,12.189,5.524c0.269,0.162,0.533,0.328,0.791,0.5
				C1304.525,1448.638,1306.728,1450.116,1308.466,1452.108z"/>
			<path style="fill:#C65447;" d="M1308.466,1452.108c1.735,1.988,1.956,4.209,1.097,6.582c0,0.009-0.006,0.023-0.017,0.032
				c-1.944,4.383-7.057,9.257-12.946,14.134c-0.77,0.639-1.449,1.226-2.053,1.773c-0.158,0.14-0.316,0.278-0.466,0.418
				c-0.123,0.107-0.241,0.221-0.358,0.323c-5.681,5.237-3.543,6.438-13.749,17.063c-11.638,12.109-19.651,12.327-21.93,11.224
				c-1.928-0.94,1.99-7.362,6.331-14.58c2.266-0.83,12.79-5.104,20.745-15.286c7.008-8.942,11.682-20.432,16.453-27.087
				c0.269,0.162,0.533,0.328,0.791,0.5C1304.525,1448.638,1306.728,1450.116,1308.466,1452.108z"/>
			<path style="fill:#FFB27D;" d="M1128.633,1438.18c-1.377,6.884-11.19,5.735-22.153,3.057s-8.357,0.506-23.96-1.222
				c-15.604-1.728-20.33-7.545-20.806-9.865c-0.426-2.059,7.284-2.784,15.554-3.737c1.039-0.116,2.084-0.245,3.129-0.374
				c9.337-1.171,16.174-7.196,24.655-12.144c8.033-4.688,20.021-23.782,20.021-23.782l21.398,1.694c0,0-11.229,17.056-15.572,24.471
				c-2.554,4.361-2.419,10.129-2.1,14.582C1128.964,1433.28,1129.122,1435.755,1128.633,1438.18z"/>
			<path style="fill:#C65447;" d="M1106.48,1441.236c-10.963-2.679-8.357,0.506-23.96-1.222c-15.604-1.728-20.33-7.545-20.806-9.865
				c-0.426-2.059,7.284-2.784,15.554-3.737l0.077,0.159c0,0,9.358,6.635,22.346,6.946c10.586,0.257,21.798-2.776,29.109-2.658
				c0.166,2.421,0.323,4.896-0.165,7.32C1127.256,1445.063,1117.443,1443.915,1106.48,1441.236z"/>
			<path style="fill:#FFB27D;" d="M1176.247,1123.889c0,0-5.098-12.491-10.707-13.001c-5.608-0.51-23.452-3.313-24.727-0.765
				s0,11.727,3.824,15.04s27.531,8.667,27.531,8.667L1176.247,1123.889z"/>
			<path style="fill:#AA413E;" d="M1210.638,1301.353l46.118,124.111c0,0,7.084,0.686,13.877-1.271
				c6.25-1.801,13.413-6.531,13.413-6.531s-11.44-119.169-32.414-143.956S1210.638,1301.353,1210.638,1301.353z"/>
			<path style="fill:#C65447;" d="M1393.045,1251.143c0,0-132.515-44.808-162.069-35.273
				c-29.554,9.533-118.289,186.077-118.289,186.077s2,2.664,7.468,4.714c5.085,1.907,17.393,1.785,17.393,1.785
				s80.081-68.642,89.614-88.662c9.534-20.02,13.347-39.087,22.881-37.18c9.533,1.906,122.982,46.714,148.722,20.02
				c25.741-26.693,19.009-61.376,19.009-61.376L1393.045,1251.143z"/>
			<path style="fill:#B5453C;" d="M1312.064,1042.693c-2.115-4.369-4.482-12.13-5.64-25.964c0.178,1.374,2.563,18.821,9.271,28.698
				c27.56,18.094,80.383,78.51,79.337,89.958c0,0,18.606-31.558,18.926-31.746c0,0,34.322-43.645-6.355-68.645
				c-20.675-12.706-20.569-29.014-19.706-43.179c0.871-14.168-5.639-75.147-47.054-59.189c0,0-6.646-2.953-9.623-2.51
				c0,0,2.431,0.465,3.668,1.741c-4.802-0.284-11.666,0.071-17.394,3.327C1302.314,943.812,1288.728,1021.215,1312.064,1042.693z"/>
			<path style="fill:#FFB27D;" d="M1317.328,1046.328c-0.138,0.063,13.307,7.043,23.419,4.276
				c9.512-2.593,15.728-14.927,15.597-14.955c-4.029-0.8-5.19-6.336-5.104-30.124l-1.821,0.359l-30.621,6.063
				c0,0,0.697,9.636,0.718,18.714C1319.535,1038.285,1319.073,1045.514,1317.328,1046.328z"/>
			<path style="fill:#ED975D;" d="M1318.797,1011.948c0,0,0.697,9.636,0.718,18.714c17.135-0.482,26.192-16.113,29.903-24.777
				L1318.797,1011.948z"/>
			<path style="fill:#B5453C;" d="M1352.58,1002.551c0,0,8.98-14.188,11.135-26.32c1.539-8.662-2.873-40.768-35.136-36.144
				c0,0-9.371,0.923-18.178,6.872c-7.005,4.731-17.114,14.945-5.811,42.961l2.937,9.464L1352.58,1002.551z"/>
			<path style="fill:#FFB27D;" d="M1313.075,1020.544c0,0,40.541,0.669,40.569-24.584c0.028-25.253,5.279-42.175-20.604-43.669
				c-25.883-1.495-30.923,8.136-32.982,16.563C1297.998,977.279,1302.53,1019.719,1313.075,1020.544z"/>
			<path style="fill:#B5453C;" d="M1314.575,951.671c0,0,11.1,29.627,28.135,34.007c17.035,4.381,24.424-0.184,24.424-0.184
				s-13.067-10.38-15.778-28.5C1351.356,956.996,1322.948,937.57,1314.575,951.671z"/>
			<path style="fill:#B5453C;" d="M1317.326,954.077c0,0-8.29,6.614-10.311,13.045c-2.021,6.431-2.93,19.669-6.789,19.219
				c0,0-8.363-20.137,1.036-31.529C1311.229,942.732,1317.326,954.077,1317.326,954.077z"/>
			<path style="fill:#699DEE;" d="M1424.13,1251.842c-2.187,6.07-8.892,7.633-17.879,6.578
				c-17.136-2.002-42.591-13.506-60.935-21.464c-27.966-12.121-40.678-0.731-49.576-8.447c-8.898-7.716,10.169-24.871-6.356-104.53
				c-5.605-27.013,29.912-84.929,29.912-84.929s3.07,16.768,37.049-3.4c1.201-0.712,14.574,19.094,27.458,43.507
				c14.199,26.937,27.801,59.473,23.803,76.24C1399.977,1187.36,1430.486,1234.204,1424.13,1251.842z"/>
			<path style="fill:#699DEE;" d="M1319.294,1039.05l-20.949,85.933c0,0-2.606,4.641-6.693,11.244
				c-9.591,15.509-27.344,41.854-38.708,44.529c-5.606,1.322-17.53-3.343-30.725-10.01c-24.947-12.604-54.446-32.358-54.446-32.358
				c-1.907-11.441,8.047-20.766,8.047-20.766s59.746,22.456,65.683,22.882c12.935,0.922,26.098-61.507,38.187-82.31
				C1288.43,1043.149,1319.294,1039.05,1319.294,1039.05z"/>
			<path style="fill:#FFFFFF;" d="M1322.087,1005.235c0,0-0.755,3.208-8.736,2.714c0,0-6.701-0.414-6.496-3.94
				C1306.855,1004.009,1313.352,1001.5,1322.087,1005.235z"/>
			<path style="fill:#4A75CB;" d="M1424.13,1251.842c-2.187,6.07-8.892,7.633-17.879,6.578
				c-11.86-5.167-63.096-25.017-62.524-38.467c0.852-19.913,9.852-20.549,3.496-45.127c-5.104-19.735,42.237-56.431,49.789-64.407
				c14.199,26.937,14.591,28.21,10.593,44.978C1399.977,1187.36,1430.486,1234.204,1424.13,1251.842z"/>
			<path style="fill:#4A75CB;" d="M1291.652,1136.227c-9.591,15.509-27.344,41.854-38.708,44.529
				c-5.606,1.322-17.53-3.343-30.725-10.01c9.629,2.484,18.985,2.415,28.074,1.538c9.852-0.954,12.712-13.03,28.284-31.145
				C1288.678,1129.394,1291.156,1132.35,1291.652,1136.227z"/>
			<path style="fill:#FFB27D;" d="M1339.119,1174.35c0,0-8.581-6.674-16.685-5.085s-12.076,7.15-11.758,9.693
				c0.317,2.542,4.608,9.692,10.805,10.328c6.197,0.636,23.835-3.813,23.835-3.813L1339.119,1174.35z"/>
			<path style="fill:#699DEE;" d="M1356.344,1035.649c0,0,33.042,2.036,44.48,17.989c16.102,22.458,44.068,114.145,36.441,135.117
				l-100.53-0.423c0,0-2.437-11.388,0.953-16.896s58.475-14.407,61.018-16.949c2.542-2.543-31.78-49.577-31.78-57.204
				S1356.344,1035.649,1356.344,1035.649z"/>
		</g>
		<g>
			<g>
				<polygon style="fill:#1C468A;" points="1330.494,1211.897 1208.787,1211.897 1186.846,1135.386 1308.365,1135.386 				"/>
				<rect x="1209.204" y="1208.917" style="fill:#163560;" width="159.11" height="2.98"/>
			</g>
			<path style="fill:#163560;" d="M1247.434,1172.399c-0.771-2.689,0.784-4.87,3.474-4.87s5.495,2.181,6.266,4.87
				c0.771,2.689-0.784,4.87-3.473,4.87S1248.205,1175.089,1247.434,1172.399z"/>
		</g>
	</g>
	<g>
		<path style="fill:#FFB27D;" d="M948.067,1038.263c0,0,13.303-10.873,18.082-10.93c4.779-0.058,13.86-2.447,13.502-0.894
			c-0.359,1.553-8.006,3.584-6.691,4.301c1.314,0.718,12.427-2.27,15.533-0.478c3.106,1.792,10.395,9.2,4.541,12.427
			c-5.855,3.226-23.419,8.363-27.96,7.767c-4.54-0.598-14.816-1.314-14.816-1.314L948.067,1038.263z"/>
		<polygon style="fill:#FFB27D;" points="778.171,1442.545 789.328,1489.535 806.04,1489.44 806.653,1442.545 		"/>
		<polygon style="fill:#FFB27D;" points="918.744,1444.548 950.489,1489.535 962.861,1473.649 943.755,1438.362 		"/>
		<path style="fill:#163560;" d="M853.686,876.368c0-0.009,0-0.009,0-0.009c0-0.115-0.009-0.229-0.029-0.344
			c-0.21-2.342-0.477-4.655-0.793-6.958c0-0.01,0-0.01,0-0.01c-0.956-7.045-2.332-13.822-4.005-19.873
			c-0.965-3.47-2.017-6.71-3.154-9.626c-0.172-0.449-0.344-0.87-0.507-1.3l-0.009-0.01c-2.715-6.624-5.812-11.384-8.976-13.182
			c-5.773-3.278-12.685-3.632-17.521-3.355c1.243-1.281,3.699-1.749,3.699-1.749c-3.001-0.45-9.693,2.523-9.693,2.523
			c-41.714-16.068-48.271,45.347-47.392,59.618c0.87,14.271-14.023,18.926-35.721,30.168c-41.409,21.45-45.041,50.174-45.041,50.174
			c0.315,0.192,0.659,0.411,1.013,0.66c2.055-3.479,6.29-10.018,9.855-11.002c-0.144,0.315-4.215,8.995-5.745,13.965
			c5.229,3.986,12.388,10.018,20.131,16.776c0,0,0,0,0.009,0.009c10.362,9.033,21.746,19.348,30.856,27.701
			c-0.067-2.857,0.048-6.901,1.089-9.042l1.74,10.477l0.229,1.366c5.812,5.344,10.391,9.606,12.713,11.786
			c0.239,0.22,0.449,0.421,0.64,0.593c0.679,0.631,1.042,0.975,1.042,0.975c-0.334-3.661,4.808-12.312,12.866-22.979
			c0.555-0.745,1.138-1.5,1.73-2.265c2.591-3.365,5.449-6.892,8.498-10.515c1.099-1.31,2.208-2.619,3.355-3.948
			c0-0.01,0.01-0.01,0.01-0.01c0.917-1.07,1.845-2.131,2.801-3.211l0.009-0.01c2.256-2.562,4.579-5.133,6.94-7.704
			c6.118-6.663,12.522-13.23,18.773-19.194c9.081-8.689,17.828-16.116,24.92-20.771c0.268-0.392,0.526-0.794,0.765-1.205
			c1.319-2.131,2.447-4.55,3.413-7.035c0.296-0.746,0.574-1.501,0.831-2.256c2.782-7.982,4.024-16.125,4.292-18.066
			c-0.679,8.01-1.768,13.965-2.973,18.41c-0.268,0.975-0.535,1.874-0.813,2.705v0.01c-0.622,1.883-1.243,3.422-1.854,4.684
			c1.214-1.118,2.323-2.38,3.346-3.785c0.669-0.918,1.3-1.893,1.883-2.925C853.878,914.489,855.378,895.056,853.686,876.368z"/>
		<path style="fill:#FFB27D;" d="M836.381,936.998c0.139,0.063-13.402,7.094-23.587,4.308c-9.581-2.612-15.841-15.035-15.708-15.063
			c4.057-0.806,5.227-6.381,5.141-30.34l1.834,0.361l30.84,6.107c0,0-0.702,9.706-0.722,18.849
			C834.158,928.898,834.623,936.179,836.381,936.998z"/>
		<path style="fill:#E37970;" d="M801.505,835.114c0,0,15.214-16.197,34.314-0.829C835.819,834.285,824.703,832.363,801.505,835.114
			z"/>
		<path style="fill:#ED975D;" d="M834.901,902.372c0,0-0.702,9.706-0.722,18.849c-17.258-0.487-26.38-16.23-30.118-24.956
			L834.901,902.372z"/>
		<path style="fill:#163560;" d="M800.875,892.907c0,0-9.044-14.29-11.215-26.509c-1.549-8.724,2.894-41.06,35.388-36.403
			c0,0,9.438,0.93,18.309,6.921c7.055,4.765,17.237,15.052,5.852,43.269l-2.957,9.532L800.875,892.907z"/>
		<path style="fill:#2B478B;" d="M957.824,1461.316l-16.348,0.501l-17.696,0.542c0,0-40.873-45.508-63.8-118.458
			c-0.535-1.695-1.098-3.411-1.695-5.148c-12.547-36.586-38.56-82.511-52.267-124.078c-2.182-6.621-4.141-12.854-5.899-18.752
			c-0.563-1.89-1.111-3.744-1.632-5.571c-10.102-35.101-13.027-58.146-15.723-82.768l98.983,0.792
			C881.748,1108.376,897.727,1276.509,957.824,1461.316z"/>
		<path style="fill:#E7F1FD;" d="M867.89,1051.499c-0.249,47.102,6.91,67.311,6.91,67.311s-42.381,21.532-92.752,5.682
			c-0.593-0.187-41.706-9.569-41.706-9.569c0.843-1.907,8.339-33.65,9.161-35.399c10.635-22.837,18.709-32.852,19.971-39.872
			c2.34-13.108,2.391-26.671,1.225-39.463c-3.073-33.862-12.214-61.972-12.214-61.972c13.725-3.123,26.577-8.609,40.862-13.967
			c3.286,4.092,13.331,8.373,22.043,8.177c10.033-0.221,13.288-4.516,12.767-9.206c10.692,5.95,19.224,11.57,19.224,11.57
			c9.087,15.785,27.518,31.114,28.852,55.328C882.563,996.072,867.897,1050.179,867.89,1051.499z"/>
		<path style="fill:#FFB27D;" d="M840.665,911.029c0,0-40.832,0.673-40.86-24.761c-0.028-25.435-5.317-42.478,20.752-43.983
			c26.069-1.505,31.146,8.194,33.219,16.682C855.851,867.454,851.286,910.198,840.665,911.029z"/>
		<path style="fill:#163560;" d="M839.154,841.662c0,0-11.18,29.84-28.337,34.252c-17.157,4.412-24.6-0.185-24.6-0.185
			s13.161-10.455,15.892-28.705C802.108,847.024,830.721,827.46,839.154,841.662z"/>
		<path style="fill:#163560;" d="M836.383,844.084c0,0,8.349,6.662,10.385,13.139c2.036,6.477,2.951,19.81,6.837,19.357
			c0,0,8.423-20.282-1.043-31.755C842.524,832.659,836.383,844.084,836.383,844.084z"/>
		<path style="fill:#FFB27D;" d="M788.767,1486.908c0,0,1.346,9.308-2.127,19.266c0,0-2.736,12.463,9.539,12.694
			c12.274,0.231,15.285-0.927,13.895-8.569c-1.389-7.643-4.033-20.858-4.033-20.858L788.767,1486.908z"/>
		<path style="fill:#C45446;" d="M811.695,1526.27H784.81c-1.099-5.525,1.333-17.319,1.735-19.585
			c0.028-0.172,0.057-0.296,0.076-0.383c0.01-0.086,0.019-0.124,0.019-0.124c13.889,12.732,22.587-0.325,22.587-0.325
			c0.01,0.02,0.02,0.038,0.029,0.067C811.293,1510.909,811.724,1524.319,811.695,1526.27z"/>
		<path style="fill:#FFB27D;" d="M992.438,1511.547c0,0-22.629-25.117-29.577-37.897l-16.827,8.62l37.614,35.324l8.801-1.157
			L992.438,1511.547z"/>
		<path style="fill:#C45446;" d="M1006.813,1526.27c0,0-28.019,0-28.469,0c-4.194,0-7.541-6.948-12.057-15.98
			c-1.848-3.696-5.996-5.731-10.247-6.85l0.111,22.83h-6.57l-6.047-24.144c-4.009-7.364-0.32-14.041,2.501-19.856
			c3.279-0.007,12.103,2.237,28.819,21.072c5.496,6.184,11.561,8.393,17.585,8.205c0.083,0.056,0.167,0.098,0.25,0.132
			C1006.583,1517.932,1006.813,1526.27,1006.813,1526.27z"/>
		<path style="fill:#233862;" d="M941.477,1461.817l-17.696,0.542c0,0-40.873-45.508-63.8-118.458
			c-0.535-1.695-1.098-3.411-1.695-5.148c-12.547-36.586-38.56-82.511-52.267-124.078c-2.182-6.621-4.141-12.854-5.899-18.752
			c-0.563-1.89-1.111-3.744-1.632-5.571l14.576-11.062c0,0,43.763,70.866,57.311,137.558
			C882.144,1374.777,929.276,1444.482,941.477,1461.817z"/>
		<path style="fill:#2B478B;" d="M814.584,1323.059c0.25,32.432-1.39,106.994-5.614,137.862h-15.674
			c-8.664,0-12.985-0.125-12.985-0.125c-10.595-53.671-18.133-98.08-23.622-136.348c-4.502-31.403-8.504-58.326-11.582-81.503
			c-3.099-23.324-5.252-42.854-6.024-59.354c-0.118-2.599-0.208-5.127-0.257-7.58c-0.049-2.466-0.063-4.863-0.042-7.19l85.526-8.337
			C823.234,1217.309,814.445,1304.209,814.584,1323.059z"/>
		<path style="fill:#233862;" d="M793.297,1460.921c-8.664,0-12.985-0.125-12.985-0.125c-10.595-53.671-18.133-98.08-23.622-136.348
			c-4.502-31.403-8.504-58.326-11.582-81.503c-3.099-23.324-5.252-42.854-6.024-59.354l31.383,18.46c0,0-20.03,7.066-12.388,60.563
			C765.722,1316.11,782.66,1453.348,793.297,1460.921z"/>
		<path style="fill:#F99746;" d="M797.335,1183.064c0,0-6.023,21.767-26.867,18.987c-20.843-2.778-50.482-15.284-50.482-15.284
			s8.907-28.146,19.982-65.121c13.409-44.764,16.746-107.678,24.569-144.077c2.195-10.199,16.957-13.51,17.513-19.61l17.292-33.55
			c0,0,25.783,57.867,27.172,72.457C827.905,1011.457,797.335,1183.064,797.335,1183.064z"/>
		<path style="fill:#ED7D2B;" d="M782.764,1039.833c-0.931,23.622-9.196,63.913-42.399,81.626c-0.129,0.069-0.264,0.132-0.396,0.188
			c13.409-44.764,13.236-87.711,21.059-124.11C778.876,993.82,783.271,1026.827,782.764,1039.833z"/>
		<g>
			<path style="fill:#C45446;" d="M998.416,1025.705h-32.012c-0.019,0.153-0.048,0.765-0.096,1.625
				c-0.124,2.896-0.325,8.584-0.287,9.109c0.449,6.787,5.171,10.534,9.74,12.322h0.01c0.028,0.019,0.038,0.028,0.067,0.038
				c1.08,0.42,2.16,0.726,3.164,0.946c0.765,0.162,1.5,0.277,2.16,0.334c0.449,0.048,0.86,0.067,1.243,0.067
				c2.342,0,4.56-0.507,6.567-1.405c5.63-2.523,9.578-8.192,9.578-14.73v-6.289C998.55,1027.044,998.502,1026.375,998.416,1025.705z
				"/>
			<path style="fill:#E37970;" d="M995.797,1025.705h-4.339c0.086,0.66,0.134,1.339,0.134,2.018v6.289
				c0,4.378-1.768,8.364-4.626,11.289c-1.415,1.434-3.097,2.609-4.961,3.441c-0.956,0.43-1.96,0.765-3.002,1.004
				c-0.449,0.104-0.908,0.182-1.376,0.248c0.707,0.105,1.434,0.153,2.169,0.153c0.459,0,0.918-0.02,1.367-0.067
				c1.835-0.144,3.584-0.611,5.19-1.338c3.001-1.348,5.525-3.594,7.227-6.386c0,0,0,0,0.009-0.009
				c0.669-1.109,1.224-2.313,1.616-3.585c0.468-1.501,0.717-3.097,0.717-4.751v-6.289
				C995.921,1027.044,995.883,1026.365,995.797,1025.705z"/>
			
				<rect x="975.834" y="1048.739" transform="matrix(-1 -1.224647e-16 1.224647e-16 -1 1964.8408 2099.4512)" style="fill:#C45446;" width="13.173" height="1.973"/>
		</g>
		<path style="fill:#FFB27D;" d="M746.297,1092.275c0,0,14.892-3.216,18.719,1.035c3.827,4.252,5.974,11.007,2.151,13.383
			c-3.824,2.375-14.896-4.143-18.879-1.514c-2.852,1.883-3.755,6.669-6.619,4.996c-2.864-1.673-5.887-12.643-5.887-12.643
			L746.297,1092.275z"/>
		<path style="fill:#F99746;" d="M799.343,924.41c0,0-40.183,1.765-49.841,10.735c-9.658,8.97-67.488,78.271-68.444,96.433
			c-0.956,18.161,50.662,69.779,50.662,69.779s14.338-3.453,20.551-12.48c0,0-32.022-57.096-30.11-59.587
			c1.912-2.491,56.158-46.94,60.603-37.082C786.595,1000.706,799.343,924.41,799.343,924.41z"/>
		<path style="fill:#F99746;" d="M952.209,1032.374c0,0-45.882,15.294-51.617,14.019c-5.735-1.273-13.926-63.445-18.354-84.754
			c-5.703-27.441-27.449-32.898-27.449-32.898l-20.633-5.52c0,0,23.624,58.362,24.319,70.172
			c0.695,11.812,2.779,193.146,2.779,193.146s-1.39,8.337,14.59,4.863c15.979-3.474,20.148-6.948,20.148-6.948
			s-6.926-50.691-10.182-95.694c16.281-2.782,68.629-29.313,68.629-29.313C962.564,1046.691,952.209,1032.374,952.209,1032.374z"/>
	</g>
	<g>
		<g>
			<path style="fill:#C69D7F;" d="M1080.445,1228.135l-8.356,47.35v0.005l-23.078,130.792l-20.633,116.921
				c-0.311,1.771-1.889,3.067-3.734,3.067c-1.626,0-2.883-1.391-2.669-2.958l17.792-132.546l19.028-141.778l2.873-21.39
				L1080.445,1228.135z"/>
		</g>
		<g>
			<path style="fill:#C69D7F;" d="M1171.798,1228.135l-8.356,47.35v0.005l-23.078,130.792l-20.633,116.921
				c-0.31,1.771-1.888,3.067-3.734,3.067c-1.626,0-2.884-1.391-2.669-2.958l17.792-132.546l19.028-141.778l2.873-21.39
				L1171.798,1228.135z"/>
		</g>
		<path style="fill:#A0795F;" d="M1072.09,1275.484c1.096-20.348-13.294-26.497-13.294-26.497l2.873-21.39l18.776,0.537
			L1072.09,1275.484z"/>
		<g>
			<g>
				<path style="fill:#C69D7F;" d="M1868.526,1526.27c-1.845,0-3.423-1.297-3.739-3.067l-18.327-103.884l-26.362-149.405
					l-7.372-41.778l18.777-0.537l3.258,24.253l22.874,170.436l13.562,101.025C1871.404,1524.879,1870.153,1526.27,1868.526,1526.27z
					"/>
			</g>
			<path style="fill:#A0795F;" d="M1834.761,1251.851c-12.165,5.368-14.663,18.063-14.663,18.063l-7.372-41.778l18.777-0.537
				L1834.761,1251.851z"/>
		</g>
		<g>
			<g>
				<path style="fill:#C69D7F;" d="M1973.803,1526.27c-1.846,0-3.424-1.297-3.739-3.067l-18.328-103.884l-26.362-149.405
					l-7.371-41.778l18.776-0.537l3.258,24.253l22.875,170.436l13.561,101.025C1976.681,1524.879,1975.429,1526.27,1973.803,1526.27z
					"/>
			</g>
			<path style="fill:#A0795F;" d="M1940.036,1251.851c-12.165,5.368-14.663,18.063-14.663,18.063l-7.371-41.778l18.776-0.537
				L1940.036,1251.851z"/>
		</g>
		<path style="fill:#E0B594;" d="M1971.262,1244.536H991.544c-8.929,0-16.235-7.306-16.235-16.235v-0.335
			c0-8.93,7.306-16.235,16.235-16.235h979.718c8.93,0,16.234,7.306,16.234,16.235v0.335
			C1987.496,1237.23,1980.191,1244.536,1971.262,1244.536z"/>
	</g>
	<g>
		<path style="fill:#C45446;" d="M1186.179,1191.991c-1.514-0.935-4.459-0.57-6.593-0.122v-3.091c0-0.683-0.048-1.355-0.132-2.017
			h-32.012c-0.083,0.661-0.131,1.334-0.131,2.017v6.283c0,8.875,7.262,16.137,16.137,16.137c4.807,0,9.137-2.132,12.1-5.494
			l-0.002,0.004c0,0,7.617-1.875,10.007-4.714C1187.944,1198.154,1188.719,1193.561,1186.179,1191.991z M1184.488,1197.8
			c-0.808,2.089-4.44,3.213-6.231,3.649c0.716-1.648,1.163-3.438,1.288-5.312c1.105-1.514,2.851-2.398,4.13-2.167
			C1184.82,1194.179,1185.512,1195.156,1184.488,1197.8z"/>
		<path style="fill:#E37970;" d="M1149.932,1188.777v6.284c0,8.873,7.261,16.14,16.133,16.14c0.734,0,1.461-0.052,2.169-0.156
			c-7.857-1.063-13.964-7.845-13.964-15.983v-6.284c0-0.682,0.046-1.356,0.131-2.018h-4.338
			C1149.978,1187.421,1149.932,1188.096,1149.932,1188.777z"/>
		<rect x="1156.851" y="1209.792" style="fill:#C45446;" width="13.173" height="1.972"/>
	</g>
	<g>
		<path style="fill:#C45446;" d="M1641.098,1191.991c-1.514-0.935-4.459-0.57-6.594-0.122v-3.091c0-0.683-0.048-1.355-0.131-2.017
			h-32.012c-0.084,0.661-0.132,1.334-0.132,2.017v6.283c0,8.875,7.262,16.137,16.138,16.137c4.806,0,9.136-2.132,12.1-5.494
			l-0.002,0.004c0,0,7.616-1.875,10.007-4.714C1642.862,1198.154,1643.638,1193.561,1641.098,1191.991z M1639.407,1197.8
			c-0.808,2.089-4.44,3.213-6.231,3.649c0.717-1.648,1.163-3.438,1.288-5.312c1.105-1.514,2.852-2.398,4.131-2.167
			C1639.738,1194.179,1640.431,1195.156,1639.407,1197.8z"/>
		<path style="fill:#E37970;" d="M1604.851,1188.777v6.284c0,8.873,7.261,16.14,16.134,16.14c0.733,0,1.461-0.052,2.168-0.156
			c-7.856-1.063-13.964-7.845-13.964-15.983v-6.284c0-0.682,0.046-1.356,0.132-2.018h-4.339
			C1604.896,1187.421,1604.851,1188.096,1604.851,1188.777z"/>
		<rect x="1611.77" y="1209.792" style="fill:#C45446;" width="13.173" height="1.972"/>
	</g>
	<path style="fill:#DEEDFF;" d="M451.625,965.198v561.072H303.607c0,0-2.227-21.816-2.887-57.054
		c-0.372-20.524-0.239-45.617,1.205-73.596c0.124-2.279,0.249-4.598,0.382-6.926c0.755-12.825,1.768-26.228,3.135-40.031
		c0.124-1.224,0.249-2.456,0.382-3.688c1.491-14.439,3.346-29.437,5.659-44.854c1.883-12.522,4.053-25.338,6.596-38.349
		c0.172-0.91,0.353-1.83,0.535-2.749c1.31-6.623,2.715-13.285,4.215-20.016c0.583-2.632,1.186-5.273,1.797-7.924
		c1.204-5.166,2.466-10.36,3.785-15.555c3.212-12.747,6.796-25.582,10.773-38.456c0.401-1.302,0.813-2.632,1.214-3.962
		c1.807-5.733,3.699-11.485,5.659-17.247c3.001-8.756,6.185-17.521,9.578-26.267c2.112-5.488,4.33-10.957,6.614-16.436
		C383.901,1061.343,412.902,1010.609,451.625,965.198z"/>
	<path style="fill:#2E3552;" d="M2952.221,1535.644H232.692c-1.971,0-3.583-1.612-3.583-3.583v-2.563
		c0-1.971,1.612-3.583,3.583-3.583h2719.528c1.971,0,3.584,1.612,3.584,3.583v2.563
		C2955.805,1534.031,2954.191,1535.644,2952.221,1535.644z"/>
</g>
</svg>
