<svg width="512" height="512" viewBox="0 0 512 512" fill="none" xmlns="http://www.w3.org/2000/svg">
<rect width="512" height="512" fill="black"/>
<path d="M135.003 264H116.989L111.589 239.428C111.409 238.76 111.036 236.921 110.47 233.912C109.93 230.878 109.493 228.126 109.159 225.657C108.722 229.206 107.641 234.838 105.918 242.553C104.967 246.822 103.385 253.971 101.174 264H83.1597L69.1958 207.604H83.8926L90.0259 235.879C91.4403 242.283 92.3918 247.259 92.8804 250.808C93.2404 248.005 93.8447 244.43 94.6934 240.084C95.542 235.712 96.3392 231.996 97.085 228.936L102.061 207.604H116.179L121.001 228.936C121.901 232.691 122.763 236.767 123.585 241.164C124.408 245.562 124.948 248.776 125.206 250.808C125.591 247.696 126.504 242.746 127.944 235.957L134.193 207.604H148.89L135.003 264ZM170.376 203.979V212.503C170.376 216.489 170.17 220.9 169.759 225.734H170.453C171.868 223.523 173.552 221.941 175.506 220.99C177.461 220.013 179.788 219.524 182.488 219.524C187.374 219.524 191.167 220.938 193.868 223.767C196.594 226.596 197.957 230.53 197.957 235.571V264H182.797V240.161C182.797 234.298 181.061 231.366 177.589 231.366C175.121 231.366 173.295 232.395 172.112 234.452C170.955 236.509 170.376 239.955 170.376 244.79V264H155.293V203.979H170.376ZM213.116 282.979C211.188 282.979 209.13 282.76 206.944 282.323V270.48C208.307 270.789 209.747 270.943 211.265 270.943C214.093 270.943 216.254 269.953 217.745 267.973C218.491 267.022 219.288 265.492 220.137 263.383L202.933 220.295H218.825L226.231 245.369C226.617 246.809 226.861 248.39 226.964 250.113H227.273C227.453 248.365 227.762 246.809 228.199 245.446L235.798 220.295H251.189L233.908 266.777C231.696 272.692 228.97 276.871 225.73 279.314C222.515 281.757 218.311 282.979 213.116 282.979ZM262.26 214.162C266.966 209.199 273.793 206.717 282.743 206.717C291.718 206.717 298.52 209.173 303.148 214.085C307.777 218.997 310.092 226.21 310.092 235.725C310.092 245.214 307.764 252.428 303.11 257.365C298.455 262.303 291.666 264.771 282.743 264.771C273.845 264.771 267.03 262.29 262.298 257.327C257.592 252.363 255.239 245.176 255.239 235.764C255.239 226.326 257.579 219.125 262.26 214.162ZM282.743 219.215C275.105 219.215 271.286 224.693 271.286 235.648C271.286 246.603 275.079 252.081 282.666 252.081C286.523 252.081 289.377 250.756 291.229 248.107C293.106 245.459 294.045 241.331 294.045 235.725C294.045 230.119 293.106 225.966 291.229 223.266C289.352 220.565 286.523 219.215 282.743 219.215ZM346.737 219.524C351.598 219.524 355.365 220.938 358.04 223.767C360.714 226.596 362.051 230.53 362.051 235.571V264H346.969V240.161C346.969 237.204 346.544 235.005 345.696 233.565C344.847 232.099 343.51 231.366 341.684 231.366C339.112 231.366 337.261 232.395 336.129 234.452C335.024 236.484 334.471 239.955 334.471 244.867V264H319.388V220.295H330.768L332.658 225.734H333.545C336.117 221.594 340.514 219.524 346.737 219.524ZM437.425 264H423.423V239.274C423.423 237.474 423.436 236.059 423.461 235.031C423.487 233.976 423.667 230.119 424.001 223.458H423.654L412.275 264H397.771L386.237 223.381H385.89C386.43 230.299 386.7 235.674 386.7 239.505V264H373.199V207.604H393.489L405.216 247.645H405.524L417.097 207.604H437.425V264Z" fill="#E5E5E5"/>
</svg>
